<?xml version="1.0" encoding="utf-8"?>
<!-- Generator: Adobe Illustrator 25.4.1, SVG Export Plug-In . SVG Version: 6.00 Build 0)  -->
<svg version="1.1" id="Layer_1" xmlns="http://www.w3.org/2000/svg" xmlns:xlink="http://www.w3.org/1999/xlink" x="0px" y="0px"
	 viewBox="0 0 1000 1000" style="enable-background:new 0 0 1000 1000;" xml:space="preserve">
<style type="text/css">
	.st0{fill:#E2DFE9;}
</style>
<path class="st0" d="M514,0.2c-36.9-1-72.9,2-107.5,8.5C175,52.4,0,255.8,0,500s175.1,447.5,406.6,491.3c30.2,5.8,61.5,8.8,93.4,8.8
	c282.9,0,510.9-235,499.6-520.4C989.2,218.7,775,7.2,514,0.2z M522.6,899.4c-8.5,0.5-14-9.2-8.7-16
	C596.1,777.5,645.2,644.5,645.2,500s-49-277.6-131.4-383.4c-5.2-6.8,0.1-16.5,8.6-16C733,112.3,900,286.6,900,500
	S733.1,887.6,522.6,899.4z"/>
</svg>
